<svg width="38" height="37" viewBox="0 0 38 37" fill="none" xmlns="http://www.w3.org/2000/svg">
<g clip-path="url(#clip0_1001_2227)">
<path fill-rule="evenodd" clip-rule="evenodd" d="M29.1776 19.4139C29.1334 14.7925 32.9535 12.5652 33.1259 12.4597C30.9808 9.31489 27.6341 8.88439 26.4422 8.83407C23.5971 8.54839 20.8896 10.5114 19.4451 10.5114C18.0046 10.5114 15.7741 8.87759 13.4163 8.92404C10.3118 8.96721 7.45205 10.7263 5.85367 13.5032C2.63257 19.0961 5.0303 27.3791 8.17151 31.9164C9.70463 34.132 11.5371 36.6313 13.94 36.541C16.2578 36.4502 17.1306 35.0462 19.926 35.0462C22.7237 35.0462 23.5094 36.541 25.961 36.4949C28.4483 36.4502 30.0298 34.232 31.5535 32.0073C33.3149 29.4304 34.0402 26.9359 34.0824 26.8064C34.0288 26.7869 29.2279 24.9437 29.1775 19.4139L29.1776 19.4139Z" fill="#0F0E13"/>
<path fill-rule="evenodd" clip-rule="evenodd" d="M24.5801 5.83601C25.857 4.28828 26.7139 2.14056 26.4791 -0.000976562C24.6411 0.0720426 22.4126 1.22591 21.096 2.76881C19.9126 4.13796 18.8769 6.3243 19.1577 8.42099C21.2081 8.58042 23.3025 7.38076 24.5801 5.83601Z" fill="#0F0E13"/>
</g>
<defs>
<clipPath id="clip0_1001_2227">
<rect width="36.545" height="36.545" fill="white" transform="translate(0.93103 -0.000976562)"/>
</clipPath>
</defs>
</svg>
