<svg width="49" height="48" viewBox="0 0 49 48" fill="none" xmlns="http://www.w3.org/2000/svg">
<circle cx="24.7497" cy="24" r="24" fill="#7177E2"/>
<path d="M36.399 27.7538C36.399 28.4148 36.2029 29.061 35.8357 29.6107C35.4684 30.1603 34.9465 30.5887 34.3357 30.8417C33.725 31.0946 33.053 31.1608 32.4046 31.0319C31.7563 30.9029 31.1608 30.5846 30.6933 30.1172C30.2259 29.6498 29.9076 29.0542 29.7786 28.4059C29.6496 27.7576 29.7158 27.0855 29.9687 26.4748C30.2217 25.8641 30.6501 25.3421 31.1997 24.9748C31.7493 24.6075 32.3955 24.4115 33.0566 24.4115C33.9427 24.4124 34.7923 24.7648 35.4189 25.3914C36.0456 26.018 36.398 26.8676 36.399 27.7538ZM30.978 32.1335V35.6306C30.9781 35.7183 31.0009 35.8044 31.0445 35.8806C31.088 35.9567 31.1506 36.0202 31.2261 36.0647C31.3017 36.1092 31.3876 36.1332 31.4752 36.1344C31.5629 36.1356 31.6494 36.1138 31.7261 36.0714L32.6906 35.5372C32.8026 35.4751 32.9286 35.4426 33.0567 35.4426C33.1848 35.4426 33.3108 35.4751 33.4228 35.5372L34.3867 36.0714C34.4634 36.1139 34.5499 36.1356 34.6376 36.1344C34.7253 36.1333 34.8112 36.1092 34.8867 36.0647C34.9623 36.0202 35.0249 35.9567 35.0684 35.8806C35.1119 35.8044 35.1348 35.7182 35.1348 35.6305V32.1338C34.4864 32.4458 33.776 32.6078 33.0564 32.6078C32.3368 32.6077 31.6264 32.4456 30.978 32.1335ZM39.2546 12.7432V32.068C39.2546 32.2016 39.2015 32.3298 39.107 32.4243C39.0125 32.5188 38.8843 32.5719 38.7507 32.5719H36.6444V31.0098C37.459 30.1215 37.9104 28.9598 37.9092 27.7545C37.9111 26.9656 37.7207 26.1881 37.3544 25.4893C36.9881 24.7906 36.4569 24.1917 35.807 23.7445C35.157 23.2974 34.4078 23.0154 33.6243 22.9231C32.8407 22.8309 32.0465 22.931 31.3104 23.2149C30.5743 23.4988 29.9186 23.9579 29.3999 24.5524C28.8813 25.1469 28.5154 25.8588 28.334 26.6267C28.1526 27.3945 28.1611 28.1949 28.3588 28.9587C28.5566 29.7224 28.9375 30.4265 29.4687 31.0098V32.5719H11.4995C11.3658 32.5719 11.2376 32.5188 11.1431 32.4243C11.0486 32.3298 10.9955 32.2016 10.9955 32.068V12.7432C10.9955 12.6095 11.0486 12.4813 11.1431 12.3868C11.2376 12.2923 11.3658 12.2393 11.4995 12.2393H38.7507C38.8843 12.2393 39.0125 12.2923 39.107 12.3868C39.2015 12.4813 39.2546 12.6095 39.2546 12.7432ZM19.7585 16.3058C19.7583 16.4051 19.7778 16.5034 19.8157 16.5952C19.8537 16.687 19.9094 16.7703 19.9796 16.8405C20.0498 16.9108 20.1332 16.9664 20.2249 17.0044C20.3167 17.0423 20.415 17.0618 20.5143 17.0616H29.7358C29.9363 17.0616 30.1285 16.982 30.2703 16.8403C30.412 16.6985 30.4917 16.5062 30.4917 16.3058C30.4917 16.1053 30.412 15.9131 30.2703 15.7713C30.1285 15.6296 29.9363 15.5499 29.7358 15.5499H20.5143C20.415 15.5498 20.3167 15.5692 20.2249 15.6072C20.1332 15.6451 20.0498 15.7008 19.9796 15.771C19.9094 15.8412 19.8537 15.9246 19.8157 16.0164C19.7778 16.1081 19.7583 16.2065 19.7585 16.3058ZM26.6066 26.6056C26.6067 26.5063 26.5872 26.408 26.5493 26.3162C26.5114 26.2244 26.4557 26.1411 26.3855 26.0709C26.3153 26.0006 26.2319 25.945 26.1401 25.907C26.0483 25.8691 25.95 25.8496 25.8507 25.8498H14.5582C14.3577 25.8498 14.1654 25.9294 14.0237 26.0712C13.8819 26.2129 13.8023 26.4052 13.8023 26.6056C13.8023 26.8061 13.8819 26.9983 14.0237 27.1401C14.1654 27.2818 14.3577 27.3615 14.5582 27.3615H25.8507C25.95 27.3616 26.0483 27.3422 26.1401 27.3042C26.2319 27.2663 26.3153 27.2106 26.3855 27.1404C26.4557 27.0702 26.5114 26.9868 26.5493 26.895C26.5872 26.8033 26.6067 26.7049 26.6066 26.6056ZM27.6396 23.174C27.6397 23.0747 27.6202 22.9764 27.5823 22.8846C27.5444 22.7928 27.4887 22.7095 27.4185 22.6393C27.3483 22.569 27.2649 22.5134 27.1731 22.4754C27.0814 22.4375 26.983 22.418 26.8837 22.4182H14.5582C14.3577 22.4182 14.1654 22.4978 14.0237 22.6396C13.8819 22.7813 13.8023 22.9736 13.8023 23.174C13.8023 23.3745 13.8819 23.5667 14.0237 23.7085C14.1654 23.8502 14.3577 23.9299 14.5582 23.9299H26.8837C26.983 23.93 27.0814 23.9106 27.1731 23.8726C27.2649 23.8347 27.3483 23.779 27.4185 23.7088C27.4887 23.6386 27.5444 23.5552 27.5823 23.4634C27.6202 23.3717 27.6397 23.2733 27.6396 23.174ZM36.4478 19.7374C36.4473 19.5371 36.3674 19.3452 36.2258 19.2036C36.0842 19.0619 35.8923 18.9821 35.692 18.9815H14.5582C14.3577 18.9815 14.1654 19.0612 14.0237 19.2029C13.8819 19.3447 13.8023 19.5369 13.8023 19.7374C13.8023 19.9378 13.8819 20.1301 14.0237 20.2719C14.1654 20.4136 14.3577 20.4932 14.5582 20.4932H35.692C35.7913 20.4934 35.8896 20.4739 35.9814 20.436C36.0732 20.398 36.1565 20.3424 36.2268 20.2722C36.297 20.2019 36.3526 20.1186 36.3906 20.0268C36.4285 19.935 36.448 19.8367 36.4478 19.7374Z" fill="white"/>
</svg>
