<svg width="35" height="38" viewBox="0 0 35 38" fill="none" xmlns="http://www.w3.org/2000/svg">
<g clip-path="url(#clip0_1001_2219)">
<path d="M6.50779 1.39431L26.5024 13.1036L22.2167 17.4686L6.50779 1.39431ZM2.36537 0.447754L20.7191 19.0684L2.36689 37.6891C1.43298 37.2686 0.793106 36.3329 0.793106 35.2452C0.793106 35.2095 0.793106 35.1738 0.79463 35.1396V35.1443V2.99413C0.793106 2.96465 0.793106 2.92896 0.793106 2.89327C0.793106 1.80551 1.43298 0.869823 2.35013 0.455513L2.36689 0.449306L2.36537 0.447754ZM32.7168 16.8867C33.3475 17.3631 33.7512 18.1203 33.7512 18.9722C33.7512 19.0064 33.7512 19.039 33.7497 19.0731V19.0684C33.7558 19.1352 33.7604 19.2143 33.7604 19.2934C33.7604 20.0941 33.3795 20.8048 32.7914 21.2455L32.7853 21.2502L28.4997 23.7221L23.8591 19.0684L28.5012 14.3403L32.7168 16.8867ZM6.50779 36.7426L22.2182 20.6683L26.5039 25.0333L6.50779 36.7426Z" fill="#0F0E13"/>
</g>
<defs>
<clipPath id="clip0_1001_2219">
<rect width="33.5172" height="37.2414" fill="white" transform="translate(0.793106 0.447754)"/>
</clipPath>
</defs>
</svg>
