<svg width="48" height="49" viewBox="0 0 48 49" fill="none" xmlns="http://www.w3.org/2000/svg">
<circle cx="23.9998" cy="24.75" r="24" fill="#7177E2"/>
<g clip-path="url(#clip0_362_4284)">
<path d="M18.5906 27.9951C18.4633 27.8679 18.3678 27.677 18.336 27.486C17.6678 27.9951 17.2542 28.5679 15.6951 28.6951C15.5996 28.6951 15.5678 28.6951 15.5678 28.6951C15.4087 28.727 15.2815 28.886 15.2815 29.0451C15.2815 29.2042 15.4406 29.3633 15.6315 29.3315H15.7587C15.7906 29.3315 15.8224 29.3315 15.8542 29.3315C16.236 29.3315 16.4587 29.427 16.4906 29.5224C16.5224 29.5542 16.6178 29.936 15.5042 31.0497C14.2315 32.227 14.136 34.136 14.136 34.1997C14.136 34.2951 14.1678 34.3588 14.2315 34.4224C14.2951 34.486 14.3906 34.5179 14.4542 34.5179C17.6042 34.3906 18.2724 32.2588 19.1951 32.2588C19.5133 32.2588 19.4178 33.0542 19.4178 33.1179C19.386 33.5315 20.0224 33.5951 20.0542 33.1815C20.0542 33.1815 20.0542 33.1179 20.0542 33.0542C20.1496 31.9088 20.5633 31.3679 20.9769 30.7951C21.0724 30.6679 21.1678 30.5406 21.2315 30.4133C21.0406 30.3815 20.8496 30.286 20.7224 30.1588L18.5906 27.9951ZM18.5269 26.3088C19.036 24.4951 19.8315 22.3315 21.0406 20.3588C20.0224 20.8997 18.6224 21.1542 17.7951 20.327C17.7315 20.2633 17.636 20.2315 17.5087 20.2315C17.3815 20.2315 17.3178 20.2951 17.286 20.3906L13.8496 26.977C13.786 27.0724 13.786 27.2315 13.8815 27.327C13.9769 27.4224 14.1042 27.4542 14.1996 27.4224L18.5269 26.3088ZM28.3587 27.7088C26.386 28.9179 24.2542 29.7133 22.4087 30.2224L21.2951 34.5497C21.2633 34.677 21.2951 34.8042 21.3906 34.8679C21.4542 34.9315 21.5178 34.9315 21.5815 34.9315C21.6451 34.9315 21.6769 34.9315 21.7406 34.8997L28.2951 31.4633C28.3906 31.4315 28.4542 31.336 28.4542 31.2406C28.4542 31.1451 28.4224 31.0497 28.3587 30.986C27.5951 30.1588 27.8178 28.727 28.3587 27.7088ZM25.5269 19.3406C24.8587 20.0088 24.6678 20.8679 25.0496 21.2815C25.5269 21.7588 26.4815 21.3133 26.9906 20.8042C27.4678 20.327 27.9451 19.3406 27.4678 18.8633C26.9906 18.3861 26.036 18.8315 25.5269 19.3406ZM33.6724 15.1088C33.3542 14.7588 32.9087 14.5679 32.4315 14.5679H32.3996C31.4133 14.5997 29.9496 14.727 28.3906 15.2361C28.836 16.5406 32.2087 19.9133 33.5451 20.3588C34.0542 18.7997 34.1815 17.3361 34.2133 16.3497C34.1815 15.8724 34.0224 15.427 33.6724 15.1088ZM19.036 27.5497L21.2315 29.7451C21.2951 29.8088 21.3587 29.8406 21.4542 29.8406C21.486 29.8406 21.5178 29.8406 21.5496 29.8406C23.2042 29.427 25.2087 28.7588 27.1178 27.7406C25.6224 27.486 23.8406 26.2451 22.6315 25.0042C21.6769 24.0179 21.0724 23.0315 20.8178 22.1406C19.9269 23.9224 19.3224 25.7679 18.9406 27.2633C18.9087 27.327 18.9406 27.4542 19.036 27.5497Z" fill="white"/>
<path d="M27.7861 15.4272C24.8907 16.5091 22.918 18.4182 21.3589 21.0909C21.2316 21.95 21.868 23.2227 23.0771 24.4954C24.7634 26.2772 26.8634 27.3272 28.0725 27.0409C28.1043 27.0409 28.1361 27.0409 28.168 27.0409C30.5543 25.5454 32.2725 23.6363 33.2907 20.9318C31.7952 20.4863 28.2634 16.9545 27.7861 15.4272ZM27.4361 21.25C26.6407 22.0454 25.3361 22.4591 24.6043 21.7272C23.9361 21.0591 24.1589 19.8182 25.0816 18.8954C25.8771 18.1 27.1816 17.6545 27.9134 18.4182C28.6771 19.1818 28.1998 20.4863 27.4361 21.25Z" fill="white"/>
</g>
<defs>
<clipPath id="clip0_362_4284">
<rect width="21" height="21" fill="white" transform="translate(13.4998 14.25)"/>
</clipPath>
</defs>
</svg>
