<svg width="59" height="58" viewBox="0 0 59 58" fill="none" xmlns="http://www.w3.org/2000/svg">
<circle cx="29.625" cy="29.1667" r="28.6667" fill="#FFD600"/>
<path d="M40.899 34.0868C40.899 34.7478 40.703 35.394 40.3358 35.9437C39.9685 36.4933 39.4465 36.9217 38.8358 37.1747C38.2251 37.4276 37.553 37.4938 36.9047 37.3649C36.2564 37.2359 35.6608 36.9176 35.1934 36.4502C34.726 35.9828 34.4076 35.3872 34.2786 34.7389C34.1497 34.0906 34.2158 33.4185 34.4688 32.8078C34.7218 32.1971 35.1501 31.6751 35.6998 31.3078C36.2494 30.9405 36.8956 30.7445 37.5566 30.7445C38.4428 30.7454 39.2924 31.0978 39.919 31.7244C40.5456 32.351 40.8981 33.2006 40.899 34.0868ZM35.4781 38.4665V41.9636C35.4781 42.0513 35.501 42.1375 35.5445 42.2136C35.588 42.2897 35.6507 42.3532 35.7262 42.3977C35.8018 42.4422 35.8876 42.4662 35.9753 42.4674C36.063 42.4686 36.1494 42.4468 36.2262 42.4044L37.1906 41.8702C37.3027 41.8082 37.4287 41.7756 37.5567 41.7756C37.6848 41.7756 37.8108 41.8082 37.9229 41.8702L38.8868 42.4044C38.9635 42.4469 39.05 42.4686 39.1377 42.4674C39.2254 42.4663 39.3112 42.4422 39.3868 42.3977C39.4624 42.3532 39.525 42.2897 39.5685 42.2136C39.612 42.1374 39.6349 42.0512 39.6349 41.9635V38.4668C38.9864 38.7788 38.2761 38.9408 37.5565 38.9408C36.8369 38.9407 36.1265 38.7786 35.4781 38.4665ZM43.7547 19.0762V38.401C43.7547 38.5346 43.7016 38.6628 43.6071 38.7573C43.5126 38.8518 43.3844 38.9049 43.2508 38.9049H41.1444V37.3428C41.9591 36.4545 42.4105 35.2928 42.4092 34.0875C42.4112 33.2986 42.2208 32.5211 41.8545 31.8223C41.4882 31.1236 40.957 30.5247 40.307 30.0775C39.657 29.6304 38.9078 29.3484 38.1243 29.2562C37.3408 29.1639 36.5466 29.264 35.8105 29.5479C35.0744 29.8318 34.4186 30.2909 33.9 30.8854C33.3813 31.4799 33.0154 32.1919 32.834 32.9597C32.6526 33.7275 32.6612 34.5279 32.8589 35.2917C33.0566 36.0554 33.4376 36.7595 33.9688 37.3428V38.9049H15.9995C15.8659 38.9049 15.7377 38.8518 15.6432 38.7573C15.5487 38.6628 15.4956 38.5346 15.4956 38.401V19.0762C15.4956 18.9425 15.5487 18.8144 15.6432 18.7199C15.7377 18.6254 15.8659 18.5723 15.9995 18.5723H43.2508C43.3844 18.5723 43.5126 18.6254 43.6071 18.7199C43.7016 18.8144 43.7547 18.9425 43.7547 19.0762ZM24.2585 22.6388C24.2584 22.7381 24.2779 22.8364 24.3158 22.9282C24.3537 23.02 24.4094 23.1033 24.4796 23.1736C24.5498 23.2438 24.6332 23.2994 24.725 23.3374C24.8167 23.3753 24.9151 23.3948 25.0144 23.3946H34.2359C34.4363 23.3946 34.6286 23.315 34.7704 23.1733C34.9121 23.0315 34.9917 22.8393 34.9917 22.6388C34.9917 22.4383 34.9121 22.2461 34.7704 22.1043C34.6286 21.9626 34.4363 21.8829 34.2359 21.8829H25.0144C24.9151 21.8828 24.8167 21.9023 24.725 21.9402C24.6332 21.9781 24.5498 22.0338 24.4796 22.104C24.4094 22.1742 24.3537 22.2576 24.3158 22.3494C24.2779 22.4411 24.2584 22.5395 24.2585 22.6388ZM31.1066 32.9386C31.1068 32.8393 31.0873 32.741 31.0494 32.6492C31.0114 32.5575 30.9557 32.4741 30.8855 32.4039C30.8153 32.3336 30.7319 32.278 30.6402 32.24C30.5484 32.2021 30.4501 32.1826 30.3508 32.1828H19.0582C18.8578 32.1828 18.6655 32.2624 18.5237 32.4042C18.382 32.5459 18.3024 32.7382 18.3024 32.9386C18.3024 33.1391 18.382 33.3314 18.5237 33.4731C18.6655 33.6149 18.8578 33.6945 19.0582 33.6945H30.3508C30.4501 33.6946 30.5484 33.6752 30.6402 33.6372C30.7319 33.5993 30.8153 33.5436 30.8855 33.4734C30.9557 33.4032 31.0114 33.3198 31.0494 33.228C31.0873 33.1363 31.1068 33.0379 31.1066 32.9386ZM32.1396 29.507C32.1398 29.4077 32.1203 29.3094 32.0824 29.2176C32.0444 29.1259 31.9888 29.0425 31.9185 28.9723C31.8483 28.902 31.7649 28.8464 31.6732 28.8084C31.5814 28.7705 31.4831 28.751 31.3838 28.7512H19.0582C18.8578 28.7512 18.6655 28.8308 18.5237 28.9726C18.382 29.1143 18.3024 29.3066 18.3024 29.507C18.3024 29.7075 18.382 29.8998 18.5237 30.0415C18.6655 30.1833 18.8578 30.2629 19.0582 30.2629H31.3838C31.4831 30.263 31.5814 30.2436 31.6732 30.2056C31.7649 30.1677 31.8483 30.112 31.9185 30.0418C31.9888 29.9716 32.0444 29.8882 32.0824 29.7964C32.1203 29.7047 32.1398 29.6063 32.1396 29.507ZM40.9479 26.0704C40.9473 25.8701 40.8675 25.6782 40.7259 25.5366C40.5843 25.3949 40.3923 25.3151 40.1921 25.3145H19.0582C18.8578 25.3145 18.6655 25.3942 18.5237 25.5359C18.382 25.6777 18.3024 25.8699 18.3024 26.0704C18.3024 26.2709 18.382 26.4631 18.5237 26.6049C18.6655 26.7466 18.8578 26.8262 19.0582 26.8262H40.1921C40.2913 26.8264 40.3897 26.8069 40.4815 26.769C40.5732 26.731 40.6566 26.6754 40.7268 26.6052C40.797 26.5349 40.8527 26.4516 40.8906 26.3598C40.9286 26.268 40.948 26.1697 40.9479 26.0704Z" fill="#0F0E13"/>
</svg>
