<svg width="59" height="58" viewBox="0 0 59 58" fill="none" xmlns="http://www.w3.org/2000/svg">
<circle cx="29.6249" cy="29.1667" r="28.6667" fill="#7177E2"/>
<g clip-path="url(#clip0_362_4407)">
<path d="M33.1208 38.4681H26.1291C25.284 38.4681 24.5964 39.1558 24.5964 40.0009V41.6595C24.5964 42.1844 25.0268 42.6096 25.5465 42.6096H33.693C34.2179 42.6096 34.643 42.1844 34.643 41.6595V40.0009C34.6483 39.1505 33.9607 38.4681 33.1208 38.4681ZM28.8534 30.7363C28.8534 31.1615 29.1998 31.5079 29.625 31.5079C30.0501 31.5079 30.3966 31.1615 30.3966 30.7363C30.3966 30.3164 30.0554 29.9595 29.6197 29.9595C29.1945 29.9647 28.8534 30.3112 28.8534 30.7363Z" fill="white"/>
<path d="M29.9924 22.4378C29.9661 22.401 29.9084 22.4168 29.9084 22.464V29.4347C30.5068 29.566 30.9635 30.0961 30.9635 30.7417C30.9635 31.4766 30.3651 32.0697 29.6302 32.0697C28.9478 32.0697 28.4124 31.5711 28.3127 30.9569C28.1972 30.2221 28.6801 29.5765 29.3468 29.4347V22.464C29.3468 22.4168 29.2838 22.401 29.2628 22.4378L23.3156 31.6341C22.8852 32.3007 23.0479 33.2035 23.6831 33.6864C25.242 34.8622 26.1973 36.248 26.591 37.9067H32.6589C33.0526 36.248 34.0079 34.8622 35.5668 33.6864C36.2072 33.2035 36.3699 32.3007 35.9343 31.6341L29.9924 22.4378Z" fill="white"/>
<path d="M41.1834 27.4401C40.438 23.0834 37.2886 19.5403 33.1523 18.2333C35.2415 18.2385 37.2938 18.2438 39.11 18.2438C39.257 19.1991 40.0811 19.9287 41.0731 19.9287C42.1702 19.9287 43.0625 19.0364 43.0625 17.9393C43.0625 16.8423 42.1702 15.95 41.0731 15.95C40.0653 15.95 39.2307 16.7058 39.1047 17.6821C37.3831 17.6769 34.7218 17.6716 31.8663 17.6664V16.8738C31.8663 16.2439 31.3572 15.7295 30.7273 15.7295H28.5227C27.8928 15.7295 27.3784 16.2439 27.3784 16.8738V17.6664C23.7094 17.6611 21.489 17.6611 20.1348 17.6664C20.0035 16.7006 19.1742 15.9552 18.1769 15.9552C17.0798 15.9552 16.1875 16.8475 16.1875 17.9393C16.1875 19.0364 17.0798 19.9287 18.1769 19.9287C19.1742 19.9287 20.0035 19.1886 20.14 18.228C21.5782 18.2228 23.7041 18.2228 26.1239 18.2228C21.9772 19.5245 18.812 23.0729 18.0667 27.4401C17.0168 27.4978 16.1875 28.3639 16.1875 29.4242C16.1875 30.5212 17.0798 31.4136 18.1769 31.4136C19.2739 31.4136 20.1663 30.5212 20.1663 29.4242C20.1663 28.4846 19.5101 27.6973 18.6283 27.4926C19.4209 22.9836 22.9167 19.3933 27.3837 18.48V19.0731C27.3837 19.703 27.8981 20.2174 28.528 20.2174H30.7273C31.3572 20.2174 31.8716 19.703 31.8716 19.0731V18.4747C36.3385 19.3881 39.8396 22.9784 40.627 27.4873C39.7504 27.692 39.089 28.4794 39.089 29.4189C39.089 30.516 39.9813 31.4083 41.0784 31.4083C42.1754 31.4083 43.0677 30.516 43.0677 29.4189C43.0625 28.3639 42.2332 27.4978 41.1834 27.4401Z" fill="white"/>
</g>
<defs>
<clipPath id="clip0_362_4407">
<rect width="26.875" height="26.875" fill="white" transform="translate(16.1875 15.7295)"/>
</clipPath>
</defs>
</svg>
