<svg width="59" height="58" viewBox="0 0 59 58" fill="none" xmlns="http://www.w3.org/2000/svg">
<circle cx="29.625" cy="29.1667" r="28.6667" fill="#3FEF96"/>
<path fill-rule="evenodd" clip-rule="evenodd" d="M16.1874 19.7603C15.4453 19.7603 14.8437 20.3619 14.8437 21.104V30.5103C14.8437 31.1879 15.3483 31.7595 16.0208 31.8437L26.7708 33.1874C26.8261 33.1943 26.8817 33.1978 26.9374 33.1978H32.3124C32.3682 33.1978 32.4238 33.1943 32.4791 33.1874L43.2291 31.8437C43.9016 31.7595 44.4062 31.1879 44.4062 30.5103V21.104C44.4062 20.3619 43.8046 19.7603 43.0624 19.7603H16.1874ZM26.9374 27.1509C26.1953 27.1509 25.5937 27.7525 25.5937 28.4946V35.2134C25.5937 35.9555 26.1953 36.5571 26.9374 36.5571H32.3124C33.0546 36.5571 33.6562 35.9555 33.6562 35.2134V28.4946C33.6562 27.7525 33.0546 27.1509 32.3124 27.1509H26.9374Z" fill="white"/>
<path fill-rule="evenodd" clip-rule="evenodd" d="M24.2499 19.0884C24.2499 17.233 25.754 15.729 27.6093 15.729H31.6406C33.4959 15.729 34.9999 17.233 34.9999 19.0884V21.104H32.3124V19.0884C32.3124 18.7173 32.0116 18.4165 31.6406 18.4165H27.6093C27.2383 18.4165 26.9374 18.7173 26.9374 19.0884V21.104H24.2499V19.0884ZM16.1874 41.2603V31.1821H18.8749V39.9165H40.3749V31.1821H43.0624V41.2603C43.0624 42.0024 42.4608 42.604 41.7187 42.604H17.5312C16.7891 42.604 16.1874 42.0024 16.1874 41.2603Z" fill="white"/>
</svg>
