<svg width="182" height="50" viewBox="0 0 182 50" fill="none" xmlns="http://www.w3.org/2000/svg">
<path d="M164.632 6.378V10.9C164.632 11.2733 164.711 11.5393 164.87 11.698C165.029 11.8473 165.304 11.922 165.696 11.922H166.634V13H165.486C164.777 13 164.245 12.8367 163.89 12.51C163.535 12.1833 163.358 11.6467 163.358 10.9V6.378H162.364V5.328H163.358V3.396H164.632V5.328H166.634V6.378H164.632ZM177.404 5.188C178.001 5.188 178.533 5.314 179 5.566C179.466 5.80867 179.835 6.17733 180.106 6.672C180.376 7.16667 180.512 7.76867 180.512 8.478V13H179.252V8.66C179.252 7.89467 179.06 7.31133 178.678 6.91C178.304 6.49933 177.796 6.294 177.152 6.294C176.489 6.294 175.962 6.50867 175.57 6.938C175.178 7.358 174.982 7.96933 174.982 8.772V13H173.722V8.66C173.722 7.89467 173.53 7.31133 173.148 6.91C172.774 6.49933 172.266 6.294 171.622 6.294C170.959 6.294 170.432 6.50867 170.04 6.938C169.648 7.358 169.452 7.96933 169.452 8.772V13H168.178V5.328H169.452V6.434C169.704 6.03267 170.04 5.72467 170.46 5.51C170.889 5.29533 171.36 5.188 171.874 5.188C172.518 5.188 173.087 5.33267 173.582 5.622C174.076 5.91133 174.445 6.336 174.688 6.896C174.902 6.35467 175.257 5.93467 175.752 5.636C176.246 5.33733 176.797 5.188 177.404 5.188Z" fill="#41E99A"/>
<path d="M54.4962 18.9624V17.5291C54.4935 17.0568 54.3046 16.6046 53.9707 16.2707C53.6367 15.9367 53.1846 15.7479 52.7123 15.7452H46.0407C45.8056 15.7438 45.5725 15.789 45.3549 15.878C45.1373 15.9671 44.9394 16.0982 44.7727 16.264C44.6059 16.4298 44.4736 16.6269 44.3833 16.844C44.293 17.0611 44.2466 17.294 44.2466 17.5291V48.1336C44.2452 48.3696 44.2906 48.6035 44.3803 48.8218C44.47 49.0401 44.6021 49.2384 44.769 49.4053C44.9359 49.5722 45.1342 49.7043 45.3525 49.794C45.5708 49.8836 45.8047 49.9291 46.0407 49.9278H52.7123C53.1863 49.925 53.6401 49.7348 53.9743 49.3986C54.3086 49.0624 54.4962 48.6076 54.4962 48.1336V31.2743C54.4962 26.4073 57.0946 24.2212 60.848 24.2212C64.1168 24.2212 66.7874 26.2114 66.7874 30.4081V48.0923C66.7874 48.5664 66.9751 49.0212 67.3093 49.3574C67.6436 49.6935 68.0973 49.8838 68.5713 49.8865H75.2429C75.4789 49.8879 75.7128 49.8424 75.9311 49.7527C76.1494 49.663 76.3477 49.5309 76.5146 49.3641C76.6815 49.1972 76.8136 48.9988 76.9032 48.7805C76.9929 48.5622 77.0384 48.3283 77.037 48.0923V28.9439C77.037 19.7151 71.1698 14.7965 64.2611 14.7965C59.755 14.7965 56.3419 16.4464 54.4962 18.9211V18.9624ZM92.6486 31.8414C92.6486 26.6857 96.072 23.4994 100.774 23.4994C105.476 23.4994 108.91 26.7166 108.91 31.8414C108.91 36.9662 105.497 40.1731 100.774 40.1731C96.0514 40.1731 92.6486 36.9662 92.6486 31.8414ZM82.3887 31.8414C82.3887 42.0188 89.7717 49.8865 98.7324 49.8865C103.311 49.8865 106.652 48.3089 108.91 45.7619V48.1336C108.91 48.6076 109.097 49.0624 109.432 49.3986C109.766 49.7348 110.22 49.925 110.694 49.9278H117.376C117.85 49.925 118.303 49.7348 118.638 49.3986C118.972 49.0624 119.159 48.6076 119.159 48.1336V16.5907C119.159 16.1167 118.972 15.6619 118.638 15.3257C118.303 14.9895 117.85 14.7993 117.376 14.7965H110.694C110.22 14.7993 109.766 14.9895 109.432 15.3257C109.097 15.6619 108.91 16.1167 108.91 16.5907V18.0034C106.652 15.4049 103.311 13.8788 98.7324 13.8788C89.7717 13.8788 82.3887 21.7568 82.3887 31.9342V31.8414ZM128.46 2.13405C127.986 2.13404 127.532 2.32166 127.195 2.65591C126.859 2.99016 126.669 3.44387 126.666 3.91794V48.1851C126.666 48.661 126.855 49.1173 127.192 49.4538C127.528 49.7903 127.985 49.9793 128.46 49.9793H135.132C135.606 49.9766 136.06 49.7864 136.394 49.4502C136.728 49.114 136.916 48.6592 136.916 48.1851V40.3896C136.923 40.0148 137.047 39.6516 137.271 39.351C137.495 39.0505 137.808 38.8277 138.165 38.7139C138.522 38.6001 138.906 38.6011 139.263 38.7167C139.62 38.8323 139.931 39.0568 140.154 39.3585L147.31 49.2472C147.477 49.4792 147.697 49.6683 147.952 49.7992C148.206 49.93 148.488 49.9988 148.774 49.9999H155.899C156.233 50.0029 156.561 49.912 156.846 49.7377C157.131 49.5633 157.361 49.3126 157.51 49.0139C157.66 48.7152 157.722 48.3806 157.691 48.0481C157.659 47.7157 157.535 47.3987 157.333 47.1333L147.495 33.9759C147.265 33.6677 147.141 33.2933 147.141 32.9087C147.141 32.524 147.265 32.1496 147.495 31.8414L157.085 18.6634C157.279 18.3955 157.395 18.0793 157.42 17.7497C157.446 17.42 157.38 17.0898 157.229 16.7953C157.079 16.5009 156.85 16.2538 156.568 16.0812C156.286 15.9086 155.962 15.8173 155.631 15.8174H148.135C147.843 15.8196 147.555 15.892 147.297 16.0283C147.038 16.1647 146.817 16.3611 146.65 16.6011L140.215 26.0257C139.999 26.3452 139.685 26.5863 139.321 26.7132C138.956 26.8401 138.56 26.8462 138.192 26.7304C137.824 26.6146 137.503 26.3832 137.277 26.0705C137.051 25.7578 136.931 25.3805 136.936 24.9946V3.86638C136.934 3.39409 136.745 2.94193 136.411 2.60797C136.077 2.27401 135.625 2.0852 135.153 2.08249L128.46 2.13405ZM2.73254 2C2.00687 2.00273 1.31186 2.29291 0.7997 2.807C0.287543 3.32109 -5.1279e-06 4.01719 0 4.74286V27.2322C0 27.9569 0.287878 28.6519 0.800329 29.1644C1.31278 29.6768 2.00782 29.9647 2.73254 29.9647H14.4876C15.3415 29.9689 16.173 30.2379 16.8675 30.7348C17.5619 31.2316 18.0851 31.9317 18.3647 32.7385L23.6236 48.0614C23.811 48.6027 24.1614 49.0728 24.6266 49.4069C25.0919 49.7411 25.6492 49.9231 26.2221 49.9278H33.9763C34.4052 49.9267 34.8279 49.8255 35.2107 49.6321C35.5935 49.4388 35.9259 49.1587 36.1813 48.8141C36.4367 48.4696 36.6081 48.0701 36.6818 47.6476C36.7555 47.2251 36.7294 46.7913 36.6057 46.3806L31.45 29.4079C31.2796 28.8491 30.934 28.36 30.4642 28.0127C29.9944 27.6655 29.4254 27.4786 28.8412 27.4797H17.5295C16.4356 27.4797 15.3865 27.0451 14.613 26.2716C13.8395 25.4981 13.4049 24.449 13.4049 23.3551V4.79441C13.4118 4.43076 13.3462 4.06939 13.2121 3.73131C13.0779 3.39324 12.8779 3.08522 12.6236 2.82517C12.3693 2.56513 12.0659 2.35826 11.7309 2.2166C11.3959 2.07493 11.0361 2.0013 10.6724 2H2.73254ZM26.2943 2C25.7069 2.00298 25.1359 2.19372 24.6647 2.54435C24.1935 2.89498 23.8467 3.38713 23.6751 3.94887L18.5194 20.9319C18.3952 21.3392 18.3683 21.77 18.4408 22.1896C18.5134 22.6092 18.6833 23.0059 18.9371 23.3479C19.1908 23.6899 19.5212 23.9676 19.9018 24.1586C20.2823 24.3497 20.7024 24.4489 21.1282 24.4481H28.8206C29.4047 24.4491 29.9738 24.2622 30.4436 23.915C30.9134 23.5678 31.259 23.0786 31.4294 22.5198L36.5851 5.54715C36.7083 5.13815 36.7347 4.70609 36.6621 4.28515C36.5895 3.86421 36.4199 3.46594 36.1669 3.12183C35.9138 2.77772 35.5841 2.49723 35.2039 2.30252C34.8237 2.10781 34.4034 2.00424 33.9763 2H26.2943Z" fill="url(#paint0_linear_1001_2208)"/>
<defs>
<linearGradient id="paint0_linear_1001_2208" x1="0" y1="25.9845" x2="157.673" y2="25.9845" gradientUnits="userSpaceOnUse">
<stop stop-color="#7177E2"/>
<stop offset="1" stop-color="#3FEF96"/>
</linearGradient>
</defs>
</svg>
