<svg width="179" height="54" viewBox="0 0 179 54" fill="none" xmlns="http://www.w3.org/2000/svg">
<path d="M54.4962 22.9624V21.5291C54.4935 21.0568 54.3046 20.6046 53.9707 20.2707C53.6367 19.9367 53.1846 19.7479 52.7123 19.7452H46.0407C45.8056 19.7438 45.5725 19.789 45.3549 19.878C45.1373 19.9671 44.9394 20.0982 44.7727 20.264C44.6059 20.4298 44.4736 20.6269 44.3833 20.844C44.293 21.0611 44.2466 21.294 44.2466 21.5291V52.1336C44.2452 52.3696 44.2906 52.6035 44.3803 52.8218C44.47 53.0401 44.6021 53.2384 44.769 53.4053C44.9359 53.5722 45.1342 53.7043 45.3525 53.794C45.5708 53.8836 45.8047 53.9291 46.0407 53.9278H52.7123C53.1863 53.925 53.6401 53.7348 53.9743 53.3986C54.3086 53.0624 54.4962 52.6076 54.4962 52.1336V35.2743C54.4962 30.4073 57.0946 28.2212 60.848 28.2212C64.1168 28.2212 66.7874 30.2114 66.7874 34.4081V52.0923C66.7874 52.5664 66.9751 53.0212 67.3093 53.3574C67.6436 53.6935 68.0973 53.8838 68.5713 53.8865H75.2429C75.4789 53.8879 75.7128 53.8424 75.9311 53.7527C76.1494 53.663 76.3477 53.5309 76.5146 53.3641C76.6815 53.1972 76.8136 52.9988 76.9032 52.7805C76.9929 52.5622 77.0384 52.3283 77.037 52.0923V32.9439C77.037 23.7151 71.1698 18.7965 64.2611 18.7965C59.755 18.7965 56.3419 20.4464 54.4962 22.9211V22.9624ZM92.6486 35.8414C92.6486 30.6857 96.072 27.4994 100.774 27.4994C105.476 27.4994 108.91 30.7166 108.91 35.8414C108.91 40.9662 105.497 44.1731 100.774 44.1731C96.0514 44.1731 92.6486 40.9662 92.6486 35.8414ZM82.3887 35.8414C82.3887 46.0188 89.7717 53.8865 98.7324 53.8865C103.311 53.8865 106.652 52.3089 108.91 49.7619V52.1336C108.91 52.6076 109.097 53.0624 109.432 53.3986C109.766 53.7348 110.22 53.925 110.694 53.9278H117.376C117.85 53.925 118.303 53.7348 118.638 53.3986C118.972 53.0624 119.159 52.6076 119.159 52.1336V20.5907C119.159 20.1167 118.972 19.6619 118.638 19.3257C118.303 18.9895 117.85 18.7993 117.376 18.7965H110.694C110.22 18.7993 109.766 18.9895 109.432 19.3257C109.097 19.6619 108.91 20.1167 108.91 20.5907V22.0034C106.652 19.4049 103.311 17.8788 98.7324 17.8788C89.7717 17.8788 82.3887 25.7568 82.3887 35.9342V35.8414ZM128.46 6.13405C127.986 6.13404 127.532 6.32166 127.195 6.65591C126.859 6.99016 126.669 7.44387 126.666 7.91794V52.1851C126.666 52.661 126.855 53.1173 127.192 53.4538C127.528 53.7903 127.985 53.9793 128.46 53.9793H135.132C135.606 53.9766 136.06 53.7864 136.394 53.4502C136.728 53.114 136.916 52.6592 136.916 52.1851V44.3896C136.923 44.0148 137.047 43.6516 137.271 43.351C137.495 43.0505 137.808 42.8277 138.165 42.7139C138.522 42.6001 138.906 42.6011 139.263 42.7167C139.62 42.8323 139.931 43.0568 140.154 43.3585L147.31 53.2472C147.477 53.4792 147.697 53.6683 147.952 53.7992C148.206 53.93 148.488 53.9988 148.774 53.9999H155.899C156.233 54.0029 156.561 53.912 156.846 53.7377C157.131 53.5633 157.361 53.3126 157.51 53.0139C157.66 52.7152 157.722 52.3806 157.691 52.0481C157.659 51.7157 157.535 51.3987 157.333 51.1333L147.495 37.9759C147.265 37.6677 147.141 37.2933 147.141 36.9087C147.141 36.524 147.265 36.1496 147.495 35.8414L157.085 22.6634C157.279 22.3955 157.395 22.0793 157.42 21.7497C157.446 21.42 157.38 21.0898 157.229 20.7953C157.079 20.5009 156.85 20.2538 156.568 20.0812C156.286 19.9086 155.962 19.8173 155.631 19.8174H148.135C147.843 19.8196 147.555 19.892 147.297 20.0283C147.038 20.1647 146.817 20.3611 146.65 20.6011L140.215 30.0257C139.999 30.3452 139.685 30.5863 139.321 30.7132C138.956 30.8401 138.56 30.8462 138.192 30.7304C137.824 30.6146 137.503 30.3832 137.277 30.0705C137.051 29.7578 136.931 29.3805 136.936 28.9946V7.86638C136.934 7.39409 136.745 6.94193 136.411 6.60797C136.077 6.27401 135.625 6.0852 135.153 6.08249L128.46 6.13405ZM2.73254 6C2.00687 6.00273 1.31186 6.29291 0.7997 6.807C0.287543 7.32109 -5.1279e-06 8.01719 0 8.74286V31.2322C0 31.9569 0.287878 32.6519 0.800329 33.1644C1.31278 33.6768 2.00782 33.9647 2.73254 33.9647H14.4876C15.3415 33.9689 16.173 34.2379 16.8675 34.7348C17.5619 35.2316 18.0851 35.9317 18.3647 36.7385L23.6236 52.0614C23.811 52.6027 24.1614 53.0728 24.6266 53.4069C25.0919 53.7411 25.6492 53.9231 26.2221 53.9278H33.9763C34.4052 53.9267 34.8279 53.8255 35.2107 53.6321C35.5935 53.4388 35.9259 53.1587 36.1813 52.8141C36.4367 52.4696 36.6081 52.0701 36.6818 51.6476C36.7555 51.2251 36.7294 50.7913 36.6057 50.3806L31.45 33.4079C31.2796 32.8491 30.934 32.36 30.4642 32.0127C29.9944 31.6655 29.4254 31.4786 28.8412 31.4797H17.5295C16.4356 31.4797 15.3865 31.0451 14.613 30.2716C13.8395 29.4981 13.4049 28.449 13.4049 27.3551V8.79441C13.4118 8.43076 13.3462 8.06939 13.2121 7.73131C13.0779 7.39324 12.8779 7.08522 12.6236 6.82517C12.3693 6.56513 12.0659 6.35826 11.7309 6.2166C11.3959 6.07493 11.0361 6.0013 10.6724 6H2.73254ZM26.2943 6C25.7069 6.00298 25.1359 6.19372 24.6647 6.54435C24.1935 6.89498 23.8467 7.38713 23.6751 7.94887L18.5194 24.9319C18.3952 25.3392 18.3683 25.77 18.4408 26.1896C18.5134 26.6092 18.6833 27.0059 18.9371 27.3479C19.1908 27.6899 19.5212 27.9676 19.9018 28.1586C20.2823 28.3497 20.7024 28.4489 21.1282 28.4481H28.8206C29.4047 28.4491 29.9738 28.2622 30.4436 27.915C30.9134 27.5678 31.259 27.0786 31.4294 26.5198L36.5851 9.54715C36.7083 9.13815 36.7347 8.70609 36.6621 8.28515C36.5895 7.86421 36.4199 7.46594 36.1669 7.12183C35.9138 6.77772 35.5841 6.49723 35.2039 6.30252C34.8237 6.10781 34.4034 6.00424 33.9763 6H26.2943Z" fill="white"/>
<path d="M161.632 6.378V10.9C161.632 11.2733 161.711 11.5393 161.87 11.698C162.029 11.8473 162.304 11.922 162.696 11.922H163.634V13H162.486C161.777 13 161.245 12.8367 160.89 12.51C160.535 12.1833 160.358 11.6467 160.358 10.9V6.378H159.364V5.328H160.358V3.396H161.632V5.328H163.634V6.378H161.632ZM174.404 5.188C175.001 5.188 175.533 5.314 176 5.566C176.466 5.80867 176.835 6.17733 177.106 6.672C177.376 7.16667 177.512 7.76867 177.512 8.478V13H176.252V8.66C176.252 7.89467 176.06 7.31133 175.678 6.91C175.304 6.49933 174.796 6.294 174.152 6.294C173.489 6.294 172.962 6.50867 172.57 6.938C172.178 7.358 171.982 7.96933 171.982 8.772V13H170.722V8.66C170.722 7.89467 170.53 7.31133 170.148 6.91C169.774 6.49933 169.266 6.294 168.622 6.294C167.959 6.294 167.432 6.50867 167.04 6.938C166.648 7.358 166.452 7.96933 166.452 8.772V13H165.178V5.328H166.452V6.434C166.704 6.03267 167.04 5.72467 167.46 5.51C167.889 5.29533 168.36 5.188 168.874 5.188C169.518 5.188 170.087 5.33267 170.582 5.622C171.076 5.91133 171.445 6.336 171.688 6.896C171.902 6.35467 172.257 5.93467 172.752 5.636C173.246 5.33733 173.797 5.188 174.404 5.188Z" fill="white"/>
</svg>
